{"title":"Meadowoods.2010.STV.DVDRip.XViD-SPRiNTER","uid":5654866,"size":732592676,"categoryP":"video","categoryS":"movies","magnet":"?xt=urn:btih:5381ef996c5b1212161be114d2f29275bbaeb32d&amp;dn=Meadowoods.2010.STV.DVDRip.XViD-SPRiNTER&amp;tr=udp%3A%2F%2Ftracker.openbittorrent.com%3A80&amp;tr=udp%3A%2F%2Fopen.demonii.com%3A1337&amp;tr=udp%3A%2F%2Ftracker.coppersurfer.tk%3A6969&amp;tr=udp%3A%2F%2Fexodus.desync.com%3A6969","seeders":0,"leechers":0,"uploader":".BONE.","files":2,"time":1277758127,"description":"\nGenre: Horror\nFormat : AVI\nFormat/Info : Audio Video Interleave\nFile size : 699 MiB\nDuration : 1h 27mn\nOverall bit rate : 1 116 Kbps\nWriting application : VirtualDubMod 1.5.10.2 (build 2540/release)\nWriting library : VirtualDubMod build 2540/release\n\nVideo\nID : 0\nFormat : MPEG-4 Visual\nFormat profile : Advanced Simple@L5\nFormat settings, BVOP : Yes\nFormat settings, QPel : No\nFormat settings, GMC : No warppoints\nFormat settings, Matrix : Default (H.263)\nMuxing mode : Packed bitstream\nCodec ID : XVID\nCodec ID/Hint : XviD\nDuration : 1h 27mn\nBit rate : 727 Kbps\nWidth : 640 pixels\nHeight : 352 pixels\nDisplay aspect ratio : 16:9\nFrame rate : 23.976 fps\nResolution : 8 bits\nColorimetry : 4:2:0\nScan type : Progressive\nBits/(Pixel*Frame) : 0.135\nStream size : 455 MiB (65%)\nWriting library : XviD 1.2.1 (UTC 2008-12-04)\n\nAudio\nID : 1\nFormat : AC-3\nFormat/Info : Audio Coding 3\nCodec ID : 2000\nDuration : 1h 27mn\nBit rate mode : Constant\nBit rate : 384 Kbps\nChannel(s) : 6 channels\nChannel positions : Front: L C R, Surround: L R, LFE\nSampling rate : 48.0 KHz\nVideo delay : 3ms\nStream size : 240 MiB (34%)\nAlignment : Split accross interleaves\nInterleave, duration : 5459 ms (130.88 video frames)","torrent":{"xt":"urn:btih:5381ef996c5b1212161be114d2f29275bbaeb32d","amp;dn":"Meadowoods.2010.STV.DVDRip.XViD-SPRiNTER","amp;tr":["udp%3A%2F%2Ftracker.openbittorrent.com%3A80","udp%3A%2F%2Fopen.demonii.com%3A1337","udp%3A%2F%2Ftracker.coppersurfer.tk%3A6969","udp%3A%2F%2Fexodus.desync.com%3A6969"],"infoHash":"5381ef996c5b1212161be114d2f29275bbaeb32d","infoHashBuffer":{"type":"Buffer","data":[83,129,239,153,108,91,18,18,22,27,225,20,210,242,146,117,187,174,179,45]},"announce":[],"urlList":[]}}